# File created by Blade
# Date/Time:  Mon Nov 18 17:26:10 2013
# Frame Rate: 100.000 fps
#------------------------------------------------------
:FULLY-SPECIFIED
:DEGREES
104
root -38.122353 -3.090098 39.325212 10.287988 -2.464886 19.518042
Spine 21.717249 -2.951459 1.659912
Spine1 7.935317 -0.986783 3.295155
Spine2 -22.089415 -1.181077 -1.147783
NeckDummy -0.078552 0.253187 0.888313 13.941225 0.109016 -1.465949
Neck 2.401546 -11.896731 39.114723
Head -0.330520 -0.082894 0.220028 -4.191858 -3.992332 -1.736969
LeftShoulderDummy -0.114182 0.241456 0.893277 13.934771 -0.024779 -1.292025
LeftShoulder 7.932512 -7.891993 19.469197
LeftArm 12.731582 40.668136 18.366986
LeftForeArm 48.248736
LeftForeArmRoll 23.418378
LeftHand -33.451879 -21.629264 11.158155
LeftHandThumb1 14.949664 1.882258
LeftHandIndex1 -0.033481 36.441041
LeftHandPinky1 -0.380250 53.826933
RightShoulderDummy -0.076282 0.300493 0.874586 13.902418 -0.109752 1.541621
RightShoulder 11.315816 1.842365 13.303523
RightArm -0.581553 63.045750 20.146092
RightForeArm 101.880442
RightForeArmRoll 27.128976
RightHand -44.852431 -20.626594 9.182264
RightHandThumb1 9.271065 5.518691
RightHandIndex1 8.829219 25.546105
RightHandPinky1 -6.976866 37.613526
LeftUpLeg -7.782443 22.652489 -45.178836
LeftLeg 44.961909
LeftFoot 0.043624 -0.660901 -1.462308 -23.096817 18.255192 -4.144485
LeftToeBase -0.563792
RightUpLeg -11.054443 19.687874 -32.760310
RightLeg 41.618491
RightFoot -0.685582 0.789280 0.633899 -19.643140 10.195514 -15.398026
RightToeBase -1.523995
105
root -37.972050 -3.072915 39.210847 10.519225 -2.843252 19.471823
Spine 21.760130 -2.991918 1.729578
Spine1 7.978654 -0.985619 3.442111
Spine2 -22.090287 -1.089558 -1.095515
NeckDummy -0.075004 0.242039 0.885203 13.997533 0.075832 -1.442001
Neck 2.303751 -11.821339 38.997510
Head -0.337358 -0.079278 0.229798 -4.308324 -4.152364 -1.727093
LeftShoulderDummy -0.111672 0.231196 0.890610 13.990741 -0.061976 -1.255620
LeftShoulder 7.726809 -7.700776 19.027004
LeftArm 13.121437 40.387237 18.977737
LeftForeArm 47.803751
LeftForeArmRoll 23.795838
LeftHand -33.414572 -21.647478 11.079674
LeftHandThumb1 15.020487 2.112071
LeftHandIndex1 0.074360 36.592750
LeftHandPinky1 -0.439267 53.788993
RightShoulderDummy -0.072445 0.289053 0.871103 13.959024 -0.078536 1.518605
RightShoulder 11.245965 1.656871 13.219783
RightArm -0.173517 63.834051 20.496224
RightForeArm 101.602307
RightForeArmRoll 27.479743
RightHand -44.736942 -20.426166 8.684835
RightHandThumb1 9.588323 5.184811
RightHandIndex1 8.419819 26.598403
RightHandPinky1 -7.789194 37.172814
LeftUpLeg -7.822343 22.784743 -45.676290
LeftLeg 45.207813
LeftFoot 0.031533 -0.646117 -1.473416 -23.067885 18.228923 -4.317580
LeftToeBase -0.504645
RightUpLeg -10.874989 19.620298 -32.853648
RightLeg 41.185878
RightFoot -0.655835 0.789117 0.607881 -19.091790 10.062761 -15.127397
RightToeBase -1.769819
106
root -37.823307 -3.051392 39.097722 10.738563 -3.121436 19.436557
Spine 21.831997 -3.082701 1.772565
Spine1 8.014116 -1.019427 3.512195
Spine2 -22.111314 -0.974211 -1.045752
NeckDummy -0.069987 0.231032 0.885772 13.991268 0.049223 -1.391774
Neck 2.314993 -11.818299 39.011906
Head -0.337827 -0.078667 0.239796 -4.453711 -4.204750 -1.722590
LeftShoulderDummy -0.107143 0.221368 0.891334 13.983294 -0.088704 -1.209148
LeftShoulder 7.533597 -7.545323 18.652781
LeftArm 13.377045 40.073797 19.488531
LeftForeArm 47.359683
LeftForeArmRoll 24.061184
LeftHand -33.344489 -21.518614 11.070755
LeftHandThumb1 14.812447 1.976377
LeftHandIndex1 -0.030085 36.615182
LeftHandPinky1 -0.363035 53.566838
RightShoulderDummy -0.066768 0.277387 0.871315 13.952284 -0.054423 1.472035
RightShoulder 11.283698 1.540313 13.092064
RightArm 0.319292 64.530702 21.050602
RightForeArm 101.342864
RightForeArmRoll 27.898473
RightHand -44.686158 -20.196706 8.275834
RightHandThumb1 9.960171 5.007849
RightHandIndex1 7.841301 27.204596
RightHandPinky1 -8.296155 36.634513
LeftUpLeg -7.799340 22.817799 -46.136839
LeftLeg 45.446356
LeftFoot 0.014977 -0.641164 -1.482388 -22.864536 18.161357 -4.493664
LeftToeBase -0.502578
RightUpLeg -10.587325 19.697976 -32.986930
RightLeg 40.802342
RightFoot -0.631834 0.798605 0.589680 -18.626948 9.715495 -14.890725
RightToeBase -2.255018
107
root -37.702268 -3.025346 38.989858 10.968206 -3.511759 19.429841
Spine 21.919704 -3.124996 1.800205
Spine1 8.032051 -1.021510 3.569385
Spine2 -22.164997 -0.866420 -0.921765
NeckDummy -0.065583 0.224452 0.889443 13.989669 -0.044350 -1.219942
Neck 2.412617 -11.983170 39.136051
Head -0.338861 -0.079878 0.254457 -4.610039 -4.153044 -1.767610
LeftShoulderDummy -0.102560 0.218568 0.896290 13.980212 -0.181717 -1.043118
LeftShoulder 7.369528 -7.530499 18.285051
LeftArm 13.536081 39.657770 19.988207
LeftForeArm 46.866554
LeftForeArmRoll 24.505185
LeftHand -33.317885 -21.612357 11.219282
LeftHandThumb1 14.703207 2.036945
LeftHandIndex1 -0.042929 36.898817
LeftHandPinky1 -0.557819 53.648771
RightShoulderDummy -0.061722 0.267801 0.873146 13.950108 0.037801 1.298909
RightShoulder 11.312143 1.540585 12.929775
RightArm 0.786339 65.135299 21.680829
RightForeArm 101.106880
RightForeArmRoll 28.296709
RightHand -44.638343 -20.279774 8.089774
RightHandThumb1 10.386844 5.248363
RightHandIndex1 7.682467 27.965822
RightHandPinky1 -8.768484 36.068291
LeftUpLeg -7.819130 23.001926 -46.668624
LeftLeg 45.670982
LeftFoot 0.008159 -0.640352 -1.488597 -22.763635 18.022552 -4.577916
LeftToeBase -0.477234
RightUpLeg -10.270252 19.616995 -33.105898
RightLeg 40.449048
RightFoot -0.628470 0.846514 0.560868 -18.393102 9.318029 -14.987630
RightToeBase -2.468433
108
root -37.595244 -3.000342 38.886164 11.205417 -3.919406 19.447665
Spine 21.959937 -3.149968 1.852769
Spine1 8.058414 -1.018208 3.677369
Spine2 -22.160348 -0.757887 -0.866629
NeckDummy -0.061667 0.215658 0.888923 13.983990 -0.078865 -1.163167
Neck 2.383237 -11.999267 39.190358
Head -0.335548 -0.080226 0.265831 -4.763482 -4.186153 -1.699781
LeftShoulderDummy -0.099861 0.211532 0.896224 13.973081 -0.218898 -0.976568
LeftShoulder 7.099801 -7.288290 17.861828
LeftArm 13.682161 39.318011 20.535085
LeftForeArm 46.332971
LeftForeArmRoll 24.890441
LeftHand -33.357965 -21.637397 11.422195
LeftHandThumb1 14.359426 2.033787
LeftHandIndex1 0.037824 37.062050
LeftHandPinky1 -0.338291 53.755609
RightShoulderDummy -0.056327 0.258044 0.871954 13.943864 0.068533 1.245920
RightShoulder 11.290791 1.378982 12.771516
RightArm 1.024369 65.655019 22.132674
RightForeArm 100.962132
RightForeArmRoll 28.764099
RightHand -44.676877 -20.334248 7.914367
RightHandThumb1 10.533921 5.370477
RightHandIndex1 7.722705 28.459190
RightHandPinky1 -9.365694 34.978080
LeftUpLeg -7.830043 23.221038 -47.235376
LeftLeg 45.886311
LeftFoot 0.005851 -0.638202 -1.494804 -22.619222 17.805931 -4.626306
LeftToeBase -0.495798
RightUpLeg -9.876092 19.519804 -33.238399
RightLeg 40.154616
RightFoot -0.578231 0.825938 0.541768 -17.942657 9.197012 -14.565300
RightToeBase -2.968831
109
root -37.498728 -2.977051 38.783887 11.444918 -4.316283 19.516470
Spine 22.039507 -3.177472 1.879437
Spine1 8.069282 -1.006752 3.723218
Spine2 -22.229201 -0.613476 -0.764614
NeckDummy -0.055659 0.214413 0.893775 14.011195 -0.149578 -1.033550
Neck 2.421161 -12.175519 39.419933
Head -0.341675 -0.086214 0.280997 -4.920828 -4.183822 -1.787403
LeftShoulderDummy -0.093937 0.213647 0.901924 13.998886 -0.290416 -0.847261
LeftShoulder 6.826760 -7.222357 17.478911
LeftArm 13.854199 38.927787 21.008547
LeftForeArm 45.814666
LeftForeArmRoll 25.304109
LeftHand -33.421482 -21.626278 11.525529
LeftHandThumb1 14.013159 2.347247
LeftHandIndex1 0.395111 37.352305
LeftHandPinky1 0.082983 54.153897
RightShoulderDummy -0.049470 0.254660 0.875344 13.970227 0.137745 1.110697
RightShoulder 11.282476 1.325727 12.603320
RightArm 1.251972 66.039800 22.650566
RightForeArm 100.886197
RightForeArmRoll 29.130070
RightHand -44.779103 -20.477182 7.848663
RightHandThumb1 10.358460 5.409505
RightHandIndex1 7.773649 29.096667
RightHandPinky1 -10.154373 33.772365
LeftUpLeg -7.938948 23.382440 -47.834928
LeftLeg 46.111332
LeftFoot 0.010658 -0.644694 -1.502465 -22.515977 17.616801 -4.662256
LeftToeBase -0.446289
RightUpLeg -9.409505 19.457354 -33.392345
RightLeg 39.919359
RightFoot -0.532997 0.831923 0.525528 -17.342775 8.991277 -14.457562
RightToeBase -3.115959
110
root -37.412512 -2.956552 38.691097 11.671641 -4.707914 19.574414
Spine 22.063778 -3.195527 1.905268
Spine1 8.087337 -1.011545 3.782949
Spine2 -22.231074 -0.483447 -0.673845
NeckDummy -0.050900 0.207915 0.893411 13.999040 -0.209859 -0.915486
Neck 2.414002 -12.266239 39.457296
Head -0.338211 -0.086228 0.299672 -5.085207 -4.243420 -1.737418
LeftShoulderDummy -0.089684 0.209984 0.902336 13.983325 -0.350290 -0.732607
LeftShoulder 6.572295 -7.048693 17.098343
LeftArm 13.987166 38.601966 21.490341
LeftForeArm 45.407367
LeftForeArmRoll 25.641301
LeftHand -33.320330 -21.935642 11.898837
LeftHandThumb1 14.077862 2.469377
LeftHandIndex1 0.128500 38.103152
LeftHandPinky1 -0.033453 55.076196
RightShoulderDummy -0.043874 0.246845 0.873602 13.956102 0.194856 1.004050
RightShoulder 11.298307 1.272165 12.414800
RightArm 1.566853 66.372098 23.291455
RightForeArm 100.863058
RightForeArmRoll 29.393482
RightHand -44.788995 -20.430649 7.626397
RightHandThumb1 10.165487 5.345748
RightHandIndex1 7.783658 29.432772
RightHandPinky1 -10.449045 32.207450
LeftUpLeg -8.037548 23.553820 -48.379460
LeftLeg 46.299924
LeftFoot 0.023388 -0.647110 -1.507343 -22.362464 17.399154 -4.725226
LeftToeBase -0.381226
RightUpLeg -8.889463 19.393299 -33.551070
RightLeg 39.740984
RightFoot -0.481463 0.826419 0.510762 -17.043419 8.946684 -14.162940
RightToeBase -3.504250
111
root -37.348231 -2.934017 38.608431 11.831683 -5.143468 19.618623
Spine 22.147495 -3.229396 1.948121
Spine1 8.119465 -1.008089 3.869640
Spine2 -22.265090 -0.321754 -0.519716
NeckDummy -0.044325 0.201321 0.895483 14.023639 -0.322911 -0.729918
Neck 2.555149 -12.506719 39.752113
Head -0.343863 -0.081375 0.317523 -5.393997 -4.267281 -1.799190
LeftShoulderDummy -0.083673 0.207519 0.906391 14.008150 -0.465881 -0.545434
LeftShoulder 6.333410 -7.013952 16.731080
LeftArm 14.169281 38.177766 21.922203
LeftForeArm 45.026898
LeftForeArmRoll 25.971604
LeftHand -33.460873 -22.042236 12.216975
LeftHandThumb1 13.800632 2.573147
LeftHandIndex1 0.354400 38.328118
LeftHandPinky1 0.416096 55.708581
RightShoulderDummy -0.036620 0.236903 0.873043 13.980110 0.308190 0.813987
RightShoulder 11.269271 1.382251 12.250341
RightArm 1.984341 66.704129 24.092389
RightForeArm 100.878465
RightForeArmRoll 29.481042
RightHand -44.813228 -20.377756 7.374923
RightHandThumb1 9.904454 5.283666
RightHandIndex1 7.735350 29.726095
RightHandPinky1 -10.839267 30.769863
LeftUpLeg -8.164123 23.812042 -48.838215
LeftLeg 46.431463
LeftFoot 0.025699 -0.644898 -1.508858 -22.250261 17.254399 -4.721978
LeftToeBase -0.343957
RightUpLeg -8.332109 19.231901 -33.673649
RightLeg 39.672962
RightFoot -0.437675 0.834250 0.490539 -16.772586 9.064325 -13.972747
RightToeBase -3.903015
